<svg xmlns="http://www.w3.org/2000/svg" version="1.1" xmlns:xlink="http://www.w3.org/1999/xlink" xmlns:svgjs="http://svgjs.dev/svgjs" width="600" height="1650" preserveAspectRatio="none" viewBox="0 0 600 1650"><g mask="url(&quot;#SvgjsMask2531&quot;)" fill="none"><rect width="600" height="1650" x="0" y="0" fill="url(&quot;#SvgjsLinearGradient2532&quot;)"></rect><path d="M395 1522L751 1878" stroke-width="8" stroke="url(&quot;#SvgjsLinearGradient2533&quot;)" stroke-linecap="round" class="TopLeft"></path><path d="M230 729L528 1027" stroke-width="8" stroke="url(&quot;#SvgjsLinearGradient2534&quot;)" stroke-linecap="round" class="TopLeft"></path><path d="M159 835L580 1256" stroke-width="10" stroke="url(&quot;#SvgjsLinearGradient2535&quot;)" stroke-linecap="round" class="BottomRight"></path><path d="M130 1196L-243 823" stroke-width="10" stroke="url(&quot;#SvgjsLinearGradient2535&quot;)" stroke-linecap="round" class="BottomRight"></path><path d="M197 1182L-99 886" stroke-width="10" stroke="url(&quot;#SvgjsLinearGradient2535&quot;)" stroke-linecap="round" class="BottomRight"></path><path d="M400 204L654 458" stroke-width="8" stroke="url(&quot;#SvgjsLinearGradient2536&quot;)" stroke-linecap="round" class="BottomRight"></path><path d="M584 577L788 781" stroke-width="10" stroke="url(&quot;#SvgjsLinearGradient2536&quot;)" stroke-linecap="round" class="BottomRight"></path><path d="M73 927L-148 706" stroke-width="6" stroke="url(&quot;#SvgjsLinearGradient2536&quot;)" stroke-linecap="round" class="BottomRight"></path><path d="M398 1048L768 1418" stroke-width="8" stroke="url(&quot;#SvgjsLinearGradient2535&quot;)" stroke-linecap="round" class="BottomRight"></path><path d="M68 1191L247 1370" stroke-width="8" stroke="url(&quot;#SvgjsLinearGradient2537&quot;)" stroke-linecap="round" class="BottomRight"></path><path d="M436 1498L707 1769" stroke-width="6" stroke="url(&quot;#SvgjsLinearGradient2538&quot;)" stroke-linecap="round" class="TopLeft"></path><path d="M205 1071L458 1324" stroke-width="6" stroke="url(&quot;#SvgjsLinearGradient2535&quot;)" stroke-linecap="round" class="BottomRight"></path><path d="M310 1268L-113 845" stroke-width="6" stroke="url(&quot;#SvgjsLinearGradient2536&quot;)" stroke-linecap="round" class="BottomRight"></path><path d="M401 317L102 18" stroke-width="10" stroke="url(&quot;#SvgjsLinearGradient2536&quot;)" stroke-linecap="round" class="BottomRight"></path><path d="M227 170L47 -10" stroke-width="10" stroke="url(&quot;#SvgjsLinearGradient2533&quot;)" stroke-linecap="round" class="TopLeft"></path><path d="M508 663L880 1035" stroke-width="8" stroke="url(&quot;#SvgjsLinearGradient2534&quot;)" stroke-linecap="round" class="TopLeft"></path><path d="M197 1417L-87 1133" stroke-width="6" stroke="url(&quot;#SvgjsLinearGradient2534&quot;)" stroke-linecap="round" class="TopLeft"></path><path d="M559 1091L723 1255" stroke-width="10" stroke="url(&quot;#SvgjsLinearGradient2537&quot;)" stroke-linecap="round" class="BottomRight"></path><path d="M397 689L-25 267" stroke-width="8" stroke="url(&quot;#SvgjsLinearGradient2533&quot;)" stroke-linecap="round" class="TopLeft"></path><path d="M227 165L-103 -165" stroke-width="6" stroke="url(&quot;#SvgjsLinearGradient2533&quot;)" stroke-linecap="round" class="TopLeft"></path><path d="M283 880L581 1178" stroke-width="8" stroke="url(&quot;#SvgjsLinearGradient2535&quot;)" stroke-linecap="round" class="BottomRight"></path><path d="M233 21L-96 -308" stroke-width="6" stroke="url(&quot;#SvgjsLinearGradient2537&quot;)" stroke-linecap="round" class="BottomRight"></path><path d="M334 1233L-37 862" stroke-width="6" stroke="url(&quot;#SvgjsLinearGradient2534&quot;)" stroke-linecap="round" class="TopLeft"></path><path d="M353 891L161 699" stroke-width="10" stroke="url(&quot;#SvgjsLinearGradient2535&quot;)" stroke-linecap="round" class="BottomRight"></path><path d="M369 687L-68 250" stroke-width="6" stroke="url(&quot;#SvgjsLinearGradient2536&quot;)" stroke-linecap="round" class="BottomRight"></path><path d="M434 608L89 263" stroke-width="6" stroke="url(&quot;#SvgjsLinearGradient2537&quot;)" stroke-linecap="round" class="BottomRight"></path><path d="M82 1068L-100 886" stroke-width="10" stroke="url(&quot;#SvgjsLinearGradient2534&quot;)" stroke-linecap="round" class="TopLeft"></path><path d="M115 216L-149 -48" stroke-width="10" stroke="url(&quot;#SvgjsLinearGradient2538&quot;)" stroke-linecap="round" class="TopLeft"></path><path d="M402 425L771 794" stroke-width="10" stroke="url(&quot;#SvgjsLinearGradient2536&quot;)" stroke-linecap="round" class="BottomRight"></path><path d="M467 722L733 988" stroke-width="8" stroke="url(&quot;#SvgjsLinearGradient2536&quot;)" stroke-linecap="round" class="BottomRight"></path><path d="M331 1579L85 1333" stroke-width="8" stroke="url(&quot;#SvgjsLinearGradient2536&quot;)" stroke-linecap="round" class="BottomRight"></path><path d="M413 262L14 -137" stroke-width="6" stroke="url(&quot;#SvgjsLinearGradient2534&quot;)" stroke-linecap="round" class="TopLeft"></path><path d="M96 470L-249 125" stroke-width="10" stroke="url(&quot;#SvgjsLinearGradient2537&quot;)" stroke-linecap="round" class="BottomRight"></path><path d="M570 1180L275 885" stroke-width="10" stroke="url(&quot;#SvgjsLinearGradient2537&quot;)" stroke-linecap="round" class="BottomRight"></path><path d="M466 938L807 1279" stroke-width="8" stroke="url(&quot;#SvgjsLinearGradient2534&quot;)" stroke-linecap="round" class="TopLeft"></path><path d="M334 1021L538 1225" stroke-width="6" stroke="url(&quot;#SvgjsLinearGradient2538&quot;)" stroke-linecap="round" class="TopLeft"></path><path d="M553 1234L754 1435" stroke-width="10" stroke="url(&quot;#SvgjsLinearGradient2538&quot;)" stroke-linecap="round" class="TopLeft"></path><path d="M13 1618L-223 1382" stroke-width="10" stroke="url(&quot;#SvgjsLinearGradient2536&quot;)" stroke-linecap="round" class="BottomRight"></path><path d="M369 1507L63 1201" stroke-width="10" stroke="url(&quot;#SvgjsLinearGradient2537&quot;)" stroke-linecap="round" class="BottomRight"></path><path d="M186 280L409 503" stroke-width="10" stroke="url(&quot;#SvgjsLinearGradient2536&quot;)" stroke-linecap="round" class="BottomRight"></path><path d="M575 707L197 329" stroke-width="6" stroke="url(&quot;#SvgjsLinearGradient2537&quot;)" stroke-linecap="round" class="BottomRight"></path><path d="M135 237L-58 44" stroke-width="10" stroke="url(&quot;#SvgjsLinearGradient2535&quot;)" stroke-linecap="round" class="BottomRight"></path><path d="M232 1198L577 1543" stroke-width="8" stroke="url(&quot;#SvgjsLinearGradient2534&quot;)" stroke-linecap="round" class="TopLeft"></path><path d="M280 819L35 574" stroke-width="10" stroke="url(&quot;#SvgjsLinearGradient2536&quot;)" stroke-linecap="round" class="BottomRight"></path></g><defs><mask id="SvgjsMask2531"><rect width="600" height="1650" fill="#ffffff"></rect></mask><linearGradient x1="-43.75%" y1="15.91%" x2="143.75%" y2="84.09%" gradientUnits="userSpaceOnUse" id="SvgjsLinearGradient2532"><stop stop-color="#0e2a47" offset="0"></stop><stop stop-color="rgba(109, 0, 158, 1)" offset="1"></stop></linearGradient><linearGradient x1="100%" y1="100%" x2="0%" y2="0%" id="SvgjsLinearGradient2533"><stop stop-color="rgba(28, 83, 142, 0)" offset="0"></stop><stop stop-color="#1c538e" offset="1"></stop></linearGradient><linearGradient x1="100%" y1="100%" x2="0%" y2="0%" id="SvgjsLinearGradient2534"><stop stop-color="rgba(34, 187, 102, 0)" offset="0"></stop><stop stop-color="rgba(34, 187, 102, 1)" offset="1"></stop></linearGradient><linearGradient x1="0%" y1="0%" x2="100%" y2="100%" id="SvgjsLinearGradient2535"><stop stop-color="rgba(174, 57, 237, 0)" offset="0"></stop><stop stop-color="rgba(174, 57, 237, 1)" offset="1"></stop></linearGradient><linearGradient x1="0%" y1="0%" x2="100%" y2="100%" id="SvgjsLinearGradient2536"><stop stop-color="rgba(28, 83, 142, 0)" offset="0"></stop><stop stop-color="#1c538e" offset="1"></stop></linearGradient><linearGradient x1="0%" y1="0%" x2="100%" y2="100%" id="SvgjsLinearGradient2537"><stop stop-color="rgba(34, 187, 102, 0)" offset="0"></stop><stop stop-color="rgba(34, 187, 102, 1)" offset="1"></stop></linearGradient><linearGradient x1="100%" y1="100%" x2="0%" y2="0%" id="SvgjsLinearGradient2538"><stop stop-color="rgba(174, 57, 237, 0)" offset="0"></stop><stop stop-color="rgba(174, 57, 237, 1)" offset="1"></stop></linearGradient></defs></svg>